<svg xmlns="http://www.w3.org/2000/svg" width="180" height="180" viewBox="0 0 180 180"><defs><style>.a{fill:#fff;opacity:0;}.b,.d{fill:#00a0e6;}.c,.d{fill-rule:evenodd;}</style></defs><g transform="translate(-2845 -2599)"><rect class="a" width="180" height="180" transform="translate(2845 2599)"/><g transform="translate(334 139)"><g transform="translate(1960.999 2069.11)"><path class="b" d="M610.134,425.036a7.041,7.041,0,0,0-1.537,1.823,22.281,22.281,0,0,0-1.085,2.33,11.334,11.334,0,0,0-.816,2.863,5.86,5.86,0,0,0,.379,2.952c.249.647.477.818,1.15.541l.073-.034a4.845,4.845,0,0,0,.979-.611,11.048,11.048,0,0,0,1.517-1.445,23.356,23.356,0,0,0,1.671-2.146,2.069,2.069,0,0,1,1.293-.835l4.111-.787a2.03,2.03,0,0,1,1.467.277c.011.008,2.992,1.866,6.579,4.154,1.929,1.227,3.915,2.51,5.552,3.58,1.8,1.176,3.46,2.291,4.711,3.176.449.316.925.664,1.408,1.059a15.4,15.4,0,0,1,1.441,1.316,10.181,10.181,0,0,1,1.248,1.577l.039.059a7.191,7.191,0,0,1,.892,1.966l.62-.882c-.345-1.49-.642-3.034-.97-4.958-.311-1.857-.631-3.916-.872-5.933a52.334,52.334,0,0,1-.4-5.728v-.022l.011-.552c-.97-.361-2.1-.759-3.23-1.134-1.556-.521-3.183-1.028-4.447-1.389-4.546-1.3-9.492-3.218-14.155-3.216a22.122,22.122,0,0,0-2.423.126,15.128,15.128,0,0,0-2.067.367,7.921,7.921,0,0,0-3.135,1.5Zm29.48,26.859a4.953,4.953,0,0,1-1.223.784l-.056.025a4.648,4.648,0,0,1-1.237.356,1.959,1.959,0,0,1-.191.384l-.065.1a9.206,9.206,0,0,1-1.337,1.49,7.563,7.563,0,0,1-1.562,1.09,6.857,6.857,0,0,1-1.579.585,7.1,7.1,0,0,1-1.31.19,1.962,1.962,0,0,1-.334,1.006l-.121.165a6.859,6.859,0,0,1-1.023,1.1,5.851,5.851,0,0,1-1.309.849,6,6,0,0,1-1.315.451,6.606,6.606,0,0,1-1.413.143,8.482,8.482,0,0,1-2.086-.28,5.564,5.564,0,0,1-3.329,1.823,7.8,7.8,0,0,1-1.36.12,10.951,10.951,0,0,1-2.047-.216,15.147,15.147,0,0,1-1.682-.451,12.156,12.156,0,0,1-1.921-.809l-17.24-11.647-.466,1.35a2.022,2.022,0,0,1-1.927,1.372l-10.067-.151a2.053,2.053,0,0,1-.83-.182l-.008-.006a2.062,2.062,0,0,1-.676-.513,2.01,2.01,0,0,1-.48-1.6l3.48-26.226a2.062,2.062,0,0,1,.255-.756,2,2,0,0,1,.53-.6l.008,0a2.007,2.007,0,0,1,.724-.347,2.109,2.109,0,0,1,.737-.05l9.893,1.426,13.836-.72a11.971,11.971,0,0,1,1.859-.639,16.811,16.811,0,0,1,2.361-.423,24.22,24.22,0,0,1,2.653-.134c4.944-.006,9.96,1.927,14.73,3.289,1.222.35,2.874.868,4.534,1.423.965.319,1.907.647,2.745.952a8.578,8.578,0,0,1,.258-1.081l.017-.05a2.044,2.044,0,0,1,1.649-1.381l10.039-1.448a2.034,2.034,0,0,1,2.288,1.737l3.483,26.249a2.173,2.173,0,0,1-.064.843l-.006.008a2.062,2.062,0,0,1-.379.709l-.028.028a2.033,2.033,0,0,1-.684.524,2.125,2.125,0,0,1-.827.188l-10.045.151a2.045,2.045,0,0,1-1.2-.37,2.069,2.069,0,0,1-.757-1c-.39-1.129-.712-2.134-.993-3.1a16.008,16.008,0,0,1-2.9,3.269l-.008.005Zm2.058-22.563a51.416,51.416,0,0,0,.4,5.512c.236,1.983.547,4.008.855,5.829.356,2.092.667,3.717,1.057,5.294l.006.039c.378,1.532.844,3.059,1.5,4.986l9.93-.151-3.466-26.1-9.924,1.431a7.083,7.083,0,0,0-.264,1.35c-.062.6-.084,1.21-.09,1.812ZM607.8,424.4l-9.411.493c1.439,5.042.953,7.767.073,12.722l-.384,2.193c-.213,1.244-.468,2.527-.721,3.689l-.008.042c-.311,1.44-.622,2.734-.819,3.518l17.807,12.019c.07.034.277.132.6.258.23.092.494.19.757.28a12.35,12.35,0,0,0,1.444.387,8.658,8.658,0,0,0,1.641.176,6.648,6.648,0,0,0,.993-.084,4.032,4.032,0,0,0,.936-.283l.053-.022a3,3,0,0,0,.5-.283c-.253-.123-.493-.247-.718-.37l-.056-.028a16.3,16.3,0,0,1-2.148-1.415c-1.495-1.174-2.981-2.372-4.47-3.555a1.048,1.048,0,1,1,1.3-1.641c1.483,1.179,3.011,2.353,4.472,3.555a13.848,13.848,0,0,0,1.851,1.218l.056.031a11.729,11.729,0,0,0,1.856.826,6.927,6.927,0,0,0,2.159.387,4.46,4.46,0,0,0,.959-.1,3.809,3.809,0,0,0,.855-.291l.011-.006a3.93,3.93,0,0,0,.849-.552,4.482,4.482,0,0,0,.718-.767l-.076-.07-.028-.028a10.565,10.565,0,0,1-1.374-.415,13.9,13.9,0,0,1-2.512-1.277,16.192,16.192,0,0,1-1.758-1.33l-.65-.535-4.254-3.375a1.047,1.047,0,1,1,1.3-1.639l4.251,3.373.7.569a15.083,15.083,0,0,0,1.539,1.171,12.148,12.148,0,0,0,2.126,1.084,7.143,7.143,0,0,0,2.476.5,5.536,5.536,0,0,0,1.2-.143,4.774,4.774,0,0,0,1.108-.412,5.382,5.382,0,0,0,1.127-.784,6.5,6.5,0,0,0,.637-.658,18.2,18.2,0,0,1-2.619-.978,24.924,24.924,0,0,1-3.315-1.868,31.167,31.167,0,0,1-2.782-2.1,32.448,32.448,0,0,1-2.591-2.437,1.046,1.046,0,0,1,1.517-1.44,31.185,31.185,0,0,0,2.426,2.277,29.018,29.018,0,0,0,2.585,1.95,22.141,22.141,0,0,0,3.034,1.711,15.662,15.662,0,0,0,2.863,1.006,3.087,3.087,0,0,0,.58.062,2.581,2.581,0,0,0,1.04-.218l.045-.02a3.017,3.017,0,0,0,.9-.642,3.093,3.093,0,0,0,.631-.955l.017-.039a2.844,2.844,0,0,0,.207-1.006l-.028-.322-.059-.319a5.886,5.886,0,0,0-.662-1.479l-.039-.064a8.78,8.78,0,0,0-1-1.241,14.2,14.2,0,0,0-1.242-1.134c-.426-.344-.872-.669-1.293-.969-1.195-.846-2.849-1.95-4.649-3.134-1.966-1.286-3.867-2.51-5.533-3.571-3.387-2.16-6.228-3.933-6.548-4.134l-4.069.779a24.378,24.378,0,0,1-1.812,2.319,13.309,13.309,0,0,1-1.8,1.7,6.642,6.642,0,0,1-1.419.877l-.09.036a3.569,3.569,0,0,1-1.374.305,2.392,2.392,0,0,1-.667-.087,2.335,2.335,0,0,1-.592-.252l-.093-.062a2.886,2.886,0,0,1-.69-.661l-.053-.078a4.2,4.2,0,0,1-.452-.846,7.923,7.923,0,0,1-.519-3.978,13.281,13.281,0,0,1,.953-3.4,12.884,12.884,0,0,1,2.21-4.017Zm-11.606.457-9.217-1.331-3.463,26.1,9.93.151.9-2.6c.036-.143.468-1.86.948-4.081l.008-.034c.25-1.154.5-2.415.7-3.6l.384-2.207c.861-4.835,1.318-7.412-.2-12.4Z" transform="translate(20.536 36.175)"/><path class="b" d="M586.428,515.935a70.034,70.034,0,1,1,107.141,0l-1.6-1.345a67.939,67.939,0,1,0-103.935,0l-1.609,1.345Z" transform="translate(0 0)"/></g><g transform="translate(1981 2188.111)"><path class="c" d="M581,436.712c.638.074,1.346.135,2.105.173s1.607.063,2.526.063a16.717,16.717,0,0,0,5.122-.726,8.6,8.6,0,0,0,5.755-5.424,12.361,12.361,0,0,0,.737-4.364,10.8,10.8,0,0,0-.737-4.138,8.008,8.008,0,0,0-2.078-2.946,8.629,8.629,0,0,0-3.272-1.825,15.886,15.886,0,0,0-4.731-.638c-1.013,0-1.979.047-2.89.121s-1.753.187-2.535.319v19.383Zm69.617-1.673c-.963,0-1.91,0-2.279-.006-1.255-.022-1.949-1.272-1.965-2.9,0-2.589,0-4.954,0-7.543h4.054l.66-1.967h-4.723l.011-4.608-2.235.772-.014,3.836h-1.56l-.66,1.967h2.235l0,7.65c0,2.63,1.057,4.77,3.842,4.864h3.349c-.884-.522-.754-1.39-.716-2.061Zm-67.066-15.861a9.927,9.927,0,0,1,1.249-.184,16.268,16.268,0,0,1,1.739-.08,9.751,9.751,0,0,1,4.48.937,6.039,6.039,0,0,1,2.658,2.63,8.584,8.584,0,0,1,.864,4.045,9.8,9.8,0,0,1-.963,4.537,6.461,6.461,0,0,1-2.832,2.85,9.938,9.938,0,0,1-4.621.987c-.5,0-.977-.011-1.423-.022s-.831-.055-1.159-.1l.005-15.6ZM602.4,422.6h-2.579v14.171H602.4V422.6Zm-1.291-4.468a1.652,1.652,0,0,0-.85.22,1.545,1.545,0,0,0-.559.58,1.631,1.631,0,0,0-.2.808,1.7,1.7,0,0,0,.2.8,1.437,1.437,0,0,0,.537.566,1.565,1.565,0,0,0,.82.214,1.71,1.71,0,0,0,.878-.214,1.457,1.457,0,0,0,.567-.566,1.758,1.758,0,0,0-.005-1.621,1.477,1.477,0,0,0-.559-.574,1.549,1.549,0,0,0-.82-.214Zm17.091,8.334q0-1.265.025-2.2t.091-1.668l-2.287,0-.091,2.138h-.058a4.782,4.782,0,0,0-.616-.874,4.5,4.5,0,0,0-.914-.783,4.982,4.982,0,0,0-1.258-.561,6.057,6.057,0,0,0-1.643-.217,5.935,5.935,0,0,0-2.392.5,6.154,6.154,0,0,0-2.05,1.448,6.842,6.842,0,0,0-1.437,2.349,9.176,9.176,0,0,0-.542,3.2,8.29,8.29,0,0,0,.451,2.731,6.6,6.6,0,0,0,1.252,2.19,5.6,5.6,0,0,0,4.34,1.984,5.879,5.879,0,0,0,1.979-.322,4.9,4.9,0,0,0,1.513-.849,4.516,4.516,0,0,0,1.024-1.2h.058v1.55a6.1,6.1,0,0,1-.6,2.888,3.583,3.583,0,0,1-1.613,1.6,5.267,5.267,0,0,1-2.359.489,8.1,8.1,0,0,1-1.654-.162,8.008,8.008,0,0,1-1.409-.407,6.456,6.456,0,0,1-1.1-.574l-.644,1.992a5.775,5.775,0,0,0,1.354.643,9.834,9.834,0,0,0,1.643.393,11.1,11.1,0,0,0,1.726.14,11.578,11.578,0,0,0,1.827-.162,8.257,8.257,0,0,0,1.786-.536,5.99,5.99,0,0,0,1.574-1,5.185,5.185,0,0,0,1.123-1.52,7.9,7.9,0,0,0,.674-2.116,15.7,15.7,0,0,0,.228-2.866v-8.219Zm-2.582,4.27a4.682,4.682,0,0,1-.052.693,3.542,3.542,0,0,1-.157.687,3.916,3.916,0,0,1-.8,1.412,3.569,3.569,0,0,1-1.247.907,3.765,3.765,0,0,1-1.53.316,4.115,4.115,0,0,1-1.819-.407,3.769,3.769,0,0,1-1.316-1.094,4.983,4.983,0,0,1-.793-1.621,7.532,7.532,0,0,1,.278-4.817,4.32,4.32,0,0,1,1.486-1.852,3.822,3.822,0,0,1,2.191-.659,3.694,3.694,0,0,1,1.676.376,3.535,3.535,0,0,1,1.211.987,4.284,4.284,0,0,1,.718,1.39l.119.525c.019.192.03.4.03.616v2.542Zm6.033,6.034h2.581v-8.518a4.826,4.826,0,0,1,.044-.643,2.854,2.854,0,0,1,.132-.558,4.108,4.108,0,0,1,.735-1.322,3.783,3.783,0,0,1,1.195-.948,3.566,3.566,0,0,1,3.077-.033,2.757,2.757,0,0,1,1.016.9,4.028,4.028,0,0,1,.556,1.333,6.945,6.945,0,0,1,.173,1.621v8.166h2.581v-8.43a8.645,8.645,0,0,0-.33-2.492,5.363,5.363,0,0,0-.864-1.726,4.5,4.5,0,0,0-1.2-1.088,4.83,4.83,0,0,0-1.338-.563,5.115,5.115,0,0,0-1.277-.162,5.674,5.674,0,0,0-2.1.393,5.134,5.134,0,0,0-1.582.975,4.684,4.684,0,0,0-1.01,1.267h-.058l-.146-2.344h-2.29c.047.583.074,1.179.094,1.8s.025,1.3.025,2.039v10.332ZM639.884,422.6H637.3v14.171h2.582V422.6Zm-1.288-4.468a1.663,1.663,0,0,0-.853.22,1.54,1.54,0,0,0-.556.58,1.631,1.631,0,0,0-.2.808,1.7,1.7,0,0,0,.2.8,1.436,1.436,0,0,0,.537.566,1.575,1.575,0,0,0,.823.214,1.71,1.71,0,0,0,.878-.214,1.449,1.449,0,0,0,.564-.566,1.62,1.62,0,0,0,.2-.8,1.665,1.665,0,0,0-.2-.819,1.432,1.432,0,0,0-.556-.574,1.567,1.567,0,0,0-.823-.214Z" transform="translate(0 0)"/><path class="d" d="M606.539,423.923h3.754l-3.1,9.284a6.742,6.742,0,0,0-.4,1.985,1.3,1.3,0,0,0,.418,1,1.527,1.527,0,0,0,1.082.4,3.477,3.477,0,0,0,2.1-.861,11.544,11.544,0,0,0,2.591-2.826l-.567-.374a9.435,9.435,0,0,1-1.863,2.07,1,1,0,0,1-.578.26l-.365-.158-.155-.426a6.509,6.509,0,0,1,.324-1.373l3.427-10.959h-6l-.664,1.982Zm6.1-6.627a1.609,1.609,0,0,1,1.138,2.754,1.533,1.533,0,0,1-1.138.476,1.559,1.559,0,0,1-1.143-.476,1.574,1.574,0,0,1-.476-1.138,1.545,1.545,0,0,1,.47-1.149,1.566,1.566,0,0,1,1.149-.468Z" transform="translate(44.746 0.72)"/></g></g></g></svg>